<svg xmlns="http://www.w3.org/2000/svg" xmlns:xlink="http://www.w3.org/1999/xlink" width="22" height="38" viewBox="0 0 22 38">
  <defs>
    <style>
      .cls-1 {
        fill: #e6e6e6;
        fill-rule: evenodd;
        filter: url(#filter);
      }
    </style>
    <filter id="filter" x="1410" y="4175" width="22" height="38" filterUnits="userSpaceOnUse">
      <feFlood result="flood" flood-color="#665f60"/>
      <feComposite result="composite" operator="in" in2="SourceGraphic"/>
      <feBlend result="blend" in2="SourceGraphic"/>
    </filter>
  </defs>
  <path id="arrow-right-2.svg" class="cls-1" d="M1410.12,4175.53a1.124,1.124,0,0,0,.36,1.46l20.06,17.87a0.942,0.942,0,0,0,1.34-.39,1.122,1.122,0,0,0-.36-1.46l-20.06-17.87A0.942,0.942,0,0,0,1410.12,4175.53Zm0,36.94a1.122,1.122,0,0,1,.36-1.46l20.06-17.87a0.942,0.942,0,0,1,1.34.39,1.124,1.124,0,0,1-.36,1.46l-20.06,17.87A0.942,0.942,0,0,1,1410.12,4212.47Z" transform="translate(-1410 -4175)"/>
</svg>
